<svg width="224" height="56" viewBox="0 0 224 56" fill="none" xmlns="http://www.w3.org/2000/svg">
<g id="Consultify v2 1" clip-path="url(#clip0_51_319)">
<path id="Vector" d="M69.4525 42.1204C66.251 42.1204 63.6337 41.1009 61.6007 39.0621C59.5873 37.025 58.5806 34.4955 58.5806 31.4736C58.5806 28.4517 59.5873 25.9347 61.6007 23.9224C63.6408 21.8622 66.2581 20.8312 69.4525 20.8295C72.647 20.8277 75.2758 21.8587 77.3391 23.9224C79.3809 25.9631 80.401 28.4802 80.3992 31.4736C80.4258 32.8791 80.1685 34.2755 79.6427 35.5794C79.1169 36.8833 78.3334 38.0678 77.3391 39.0621C75.3007 41.1027 72.6719 42.1221 69.4525 42.1204ZM74.6151 31.4389C74.6282 30.754 74.5008 30.0736 74.2406 29.4399C73.9804 28.8061 73.593 28.2323 73.1023 27.754C72.6295 27.2637 72.0625 26.8737 71.4354 26.6073C70.8083 26.3409 70.1339 26.2037 69.4525 26.2037C68.7711 26.2037 68.0967 26.3409 67.4696 26.6073C66.8425 26.8737 66.2756 27.2637 65.8028 27.754C65.3177 28.2348 64.9363 28.8098 64.6821 29.4436C64.4279 30.0773 64.3062 30.7564 64.3247 31.4389C64.3033 32.1377 64.4227 32.8337 64.6757 33.4854C64.9287 34.1372 65.3101 34.7316 65.7974 35.2332C66.7659 36.1997 68.0786 36.7425 69.4472 36.7425C70.8158 36.7425 72.1285 36.1997 73.097 35.2332C73.5885 34.7325 73.9758 34.1393 74.2364 33.488C74.4969 32.8367 74.6257 32.1403 74.6151 31.4389Z" fill="#4420AA"/>
<path id="Vector_2" d="M89.577 41.5684H83.8008V21.3814H89.4303V24.1811C90.0229 23.155 90.8993 22.3218 91.9542 21.7813C93.136 21.1406 94.4623 20.8129 95.8067 20.8294C96.8316 20.8059 97.851 20.9854 98.8062 21.3574C99.7614 21.7295 100.633 22.2868 101.372 22.9972C102.895 24.4477 103.657 26.523 103.659 29.2231V41.5631H97.8717V30.7296C97.8717 29.2809 97.516 28.1513 96.8045 27.3407C96.446 26.9401 96.003 26.6241 95.5075 26.4152C95.0121 26.2063 94.4764 26.1099 93.9391 26.1328C93.3504 26.11 92.7638 26.2153 92.2197 26.4413C91.6757 26.6674 91.1873 27.0088 90.7883 27.442C89.9896 28.313 89.5903 29.4604 89.5903 30.8843L89.577 41.5684Z" fill="#4420AA"/>
<path id="Vector_3" d="M114.971 42.1204C111.413 42.1204 108.539 40.8761 106.348 38.3875L109.187 34.6332C110.93 36.3984 112.858 37.2818 114.971 37.2836C115.597 37.3131 116.218 37.1593 116.758 36.841C116.968 36.7241 117.142 36.5529 117.262 36.3455C117.382 36.1381 117.444 35.9021 117.441 35.6625C117.441 35.0759 117.022 34.5959 116.187 34.1906C115.919 34.068 115.118 33.7729 113.786 33.3054C112.363 32.7721 111.491 32.4282 111.169 32.2735C108.759 31.1217 107.555 29.3441 107.556 26.9408C107.53 26.0764 107.71 25.218 108.081 24.4367C108.452 23.6555 109.004 22.9738 109.691 22.448C111.14 21.2943 113.057 20.7166 115.44 20.7148C118.364 20.7148 120.798 21.6481 122.74 23.5145L120.048 27.2741C118.525 26.0298 116.953 25.4076 115.331 25.4076C114.791 25.3792 114.255 25.521 113.8 25.8129C113.625 25.9224 113.48 26.0746 113.381 26.2551C113.281 26.4356 113.228 26.6385 113.229 26.8448C113.229 27.5807 113.831 28.1451 115.035 28.5379C117.297 29.2774 118.898 29.8916 119.837 30.3804C122.123 31.582 123.266 33.301 123.266 35.5371C123.276 36.4463 123.075 37.3454 122.678 38.1635C122.281 38.9816 121.7 39.6963 120.979 40.2513C119.483 41.4974 117.48 42.1204 114.971 42.1204Z" fill="#4420AA"/>
<path id="Vector_4" d="M135.872 42.083C132.921 42.083 130.609 41.2725 128.935 39.6513C127.261 38.0302 126.42 35.7833 126.411 32.9108V21.3814H132.198V32.9481C132.198 34.1266 132.523 35.0598 133.174 35.7478C133.825 36.4357 134.729 36.7796 135.885 36.7796C137.038 36.7796 137.94 36.4357 138.593 35.7478C139.246 35.0598 139.571 34.1266 139.569 32.9481V21.3814H145.356V32.9108C145.356 35.8349 144.521 38.0942 142.851 39.6886C141.181 41.2831 138.854 42.0813 135.872 42.083Z" fill="#4420AA"/>
<path id="Vector_5" d="M155.302 13.5369V41.5684H149.51V13.5369H155.302Z" fill="#4420AA"/>
<path id="Vector_6" d="M173.207 35.8224L174.829 40.4245C173.108 41.5302 171.043 42.083 168.637 42.083C163.82 42.083 161.412 39.3695 161.412 33.9426V26.1702H158.211V21.3707H161.439V14.2355H167.188V21.3814H173.677V26.1808H167.199V33.396C167.199 35.6784 168.096 36.8205 169.891 36.8223C170.825 36.8187 171.93 36.4854 173.207 35.8224Z" fill="#4420AA"/>
<path id="Vector_7" d="M180.787 19.3176C180.331 19.3295 179.877 19.2492 179.452 19.0815C179.028 18.9139 178.641 18.6622 178.316 18.3418C177.99 18.0248 177.733 17.6436 177.562 17.2223C177.39 16.801 177.309 16.3487 177.321 15.894C177.308 15.439 177.39 14.9862 177.561 14.5643C177.732 14.1425 177.99 13.7609 178.316 13.4437C178.641 13.1232 179.028 12.8716 179.452 12.7039C179.877 12.5362 180.331 12.4559 180.787 12.4678C181.237 12.4583 181.685 12.5399 182.103 12.7076C182.521 12.8753 182.901 13.1256 183.22 13.4437C183.547 13.7609 183.804 14.1425 183.975 14.5643C184.147 14.9862 184.228 15.439 184.215 15.894C184.228 16.3487 184.146 16.801 183.975 17.2223C183.803 17.6436 183.546 18.0248 183.22 18.3418C182.901 18.6598 182.521 18.9101 182.103 19.0778C181.685 19.2455 181.237 19.3271 180.787 19.3176Z" fill="#FF4477"/>
<path id="Vector_8" d="M183.626 21.3814H177.839V41.5684H183.626V21.3814Z" fill="#4420AA"/>
<path id="Vector_9" d="M198.524 17.5871C197.392 17.5871 196.52 17.8698 195.906 18.4351C195.293 19.0003 194.988 19.81 194.991 20.8641V21.3814H201.221V26.1808H194.991V41.5791H189.239V26.1702H186.251V21.3707H189.239V20.7175C189.239 18.0404 190.014 16.0024 191.563 14.6035C193.164 13.2045 195.191 12.5051 197.646 12.5051C199.8 12.5283 201.914 13.0843 203.801 14.1235L201.933 18.507C200.599 17.8938 199.463 17.5871 198.524 17.5871Z" fill="#4420AA"/>
<path id="Vector_10" d="M213.384 33.8706L217.733 21.3814H224L215.996 42.1204C214.94 44.8454 213.686 46.8647 212.237 48.1783C210.777 49.4951 208.867 50.2014 206.901 50.1514C205.256 50.1514 203.891 49.7959 202.808 49.0849L203.875 44.2855C204.675 44.7363 205.575 44.9776 206.493 44.9867C208.115 44.9867 209.418 43.9548 210.401 41.8911L210.668 41.3018L201.864 21.3734H208.534L213.384 33.8706Z" fill="#4420AA"/>
<path id="Vector_11" d="M54.6026 27.9287C54.6021 22.5324 53.0004 17.2574 50.0002 12.7708C47 8.28414 42.7359 4.78739 37.7472 2.72267C32.7585 0.65795 27.2692 0.117999 21.9734 1.17109C16.6777 2.22419 11.8133 4.82303 7.99538 8.63899C4.17749 12.455 1.57755 17.3167 0.524343 22.6093C-0.528868 27.902 0.0119451 33.388 2.0784 38.3735C4.14485 43.359 7.64413 47.6201 12.1337 50.6181C16.6234 53.6161 21.9017 55.2162 27.3013 55.2162H51.972L46.1985 47.6118C48.8584 45.0694 50.9746 42.0142 52.4191 38.6311C53.8636 35.2479 54.6064 31.607 54.6026 27.9287ZM36.3484 42.2257C33.8916 43.4246 31.1904 44.0388 28.4565 44.0202C23.8961 44.0202 20.0826 42.543 17.0163 39.5887C13.9481 36.6077 12.414 32.7664 12.414 28.0647C12.414 23.3399 13.9766 19.4586 17.1016 16.4207C20.2534 13.3544 24.0659 11.8212 28.5392 11.8212C31.1972 11.7991 33.8252 12.3837 36.223 13.5304C38.4717 14.5812 40.4264 16.1702 41.9137 18.1565L37.3622 22.7986C34.9984 19.9545 32.1846 18.5324 28.9207 18.5324C27.6962 18.51 26.4801 18.7382 25.3472 19.2032C24.2144 19.6682 23.1887 20.36 22.3335 21.2361C20.5335 23.0386 19.6335 25.3032 19.6335 28.03C19.6335 30.6964 20.5229 32.9184 22.3015 34.6959C24.0801 36.4735 26.275 37.3623 28.8861 37.3623C32.2655 37.3623 35.1496 35.9278 37.5383 33.0588L42.2259 37.4449C40.6897 39.4971 38.671 41.1392 36.3484 42.2257Z" fill="#FFBC45"/>
</g>
<defs>
<clipPath id="clip0_51_319">
<rect width="224" height="54.5697" fill="white" transform="translate(0 0.642456)"/>
</clipPath>
</defs>
</svg>
